<svg version="1" xmlns="http://www.w3.org/2000/svg" width="1685.333" height="1685.333" viewBox="0 0 1264.000000 1264.000000"><path d="M394.2 229.2c0 11.2-.1 20.7-.2 21.3-.1.5-.1 1.4 0 2 .7 2.8.4 15.5-.3 15.5-.5 0-.5.5-.1 1.1.9 1.6 1.1 30.9.1 30.9-.5 0-.5.5-.1 1.1.9 1.6 1.1 30.9.1 30.9-.5 0-.5.5-.1 1.1.9 1.6 1.1 30.9.1 30.9-.5 0-.5.5-.1 1.1.6 1 .9 74.5.4 77.4-.1.5-.1 1.4 0 2 .3 1.2.2 44.6 0 46-.1.5-.1 1.4 0 2 .3 1.2.2 44.6 0 46-.1.5-.1 1.4 0 2 .3 1.2.2 44.6 0 46-.1.5-.1 1.4 0 2 .3 1.2.2 44.6 0 46-.1.5-.1 1.4 0 2 .7 2.8.4 15.5-.3 15.5-.5 0-.5.5-.1 1.1.9 1.6 1.1 30.9.1 30.9-.5 0-.5.5-.1 1.1.9 1.6 1.1 30.9.1 30.9-.5 0-.5.5-.1 1.1.9 1.6 1.1 30.9.1 30.9-.5 0-.5.5-.1 1.1.6 1 .9 74.5.4 77.4-.1.5-.1 1.4 0 2 .6 2.6.2 45.3-.4 46.3-.4.7-.2 1.2.4 1.2 2.6 0-2.6 5.8-25.9 29l-24.6 24.6-74.7-.1h-74.6L178 913c-8.9-9.1-18.1-18.6-20.6-21.3-2.5-2.6-4.9-4.7-5.4-4.7-.6 0-1-.4-1-1 0-.5-1.4-2.3-3.1-3.9l-3.1-3-.4-30.3c-.4-36.6-.4-30.5-.1-47.5.1-7.9-.2-14.3-.6-14.3-.5 0-.5-.5-.1-1.1.3-.6.6-3 .5-5.2 0-2.3-.2-13.9-.4-25.7l-.2-21.5-71.8-.3L0 733v195.5l63.8 63.8 63.8 63.7h283.9l63.7-63.8 63.8-63.8V209H394.2v20.2zM649.2 274.4c0 63.6 0 65.4 1.9 65.9 1 .3 2.1.1 2.4-.3.3-.5 1.6-.5 2.8-.1 1.2.5 3.5.4 5.1 0 1.6-.5 3.6-.5 4.5 0 .9.5 2.5.7 3.6.5 1.1-.3 2.7-.4 3.5-.4.8 0 3.1-.1 5-.1h4.8c.6 0 3.9.1 7.2.2 3.4.1 6.4-.1 6.7-.5.3-.3 1.2-.1 1.9.5.8.6 1.4.6 1.8 0 .4-.6 1.8-.6 3.4-.1 1.6.4 3.6.4 4.5-.2 1.1-.6 1.7-.5 1.7.2s.6.8 1.8.1c1-.5 2.4-.6 3.1-.1.8.4 2.5.4 4 0 1.4-.4 3.5-.4 4.5 0 1.1.4 3.7.4 5.7 0 2.1-.4 4.3-.4 4.9 0 .6.4 2.8.5 4.8.2 4.5-.6 6.1-.6 8.8.1 1.1.3 2.7.1 3.4-.3.8-.5 2.2-.4 3.1.1 1 .5 2 .5 2.3 0 .3-.4 1.8-.6 3.3-.4 2.8.4 5.1.5 8.8.4 2.2-.1 8.2-.2 10.3-.2.6 0 3.9.1 7.2.2 3.4.1 6.4-.1 6.7-.5.3-.3 1.2-.1 1.9.5.8.6 1.4.6 1.8 0 .4-.6 1.8-.6 3.4-.1 1.6.4 3.6.4 4.5-.2 1.1-.6 1.7-.5 1.7.2s.6.8 1.8.1c1-.5 2.4-.6 3.1-.1.8.4 2.5.4 4 0 1.4-.4 3.5-.4 4.5 0 1.1.4 3.7.4 5.7 0s4.4-.3 5.2.2c.9.5 1.8.4 2.2-.1.3-.6 1.5-.7 2.8-.2 1.2.5 3.4.5 4.9.1 1.4-.5 2.9-.6 3.2-.3.7.8 12.2.7 13.4-.1.6-.3 1.3-.2 1.7.4.4.6 1.2.7 1.8.3 1.5-1 3.8-1 5.7-.2.8.4 3.4.4 5.8-.1 2.3-.4 4.5-.3 4.8.1.3.5 1.2.5 2.2 0 .9-.5 2.4-.5 3.7.1l2.2 1 .1 356.1c0 195.9.1 356.8.1 357.5.1 1 14.8 1.2 71.8 1l71.7-.3.1-357c0-196.4.3-357.1.7-357.3 3-1.3 6.9-1.9 7.3-1.2.3.5 1.6.6 2.8.1 1.2-.5 3.1-.5 4.2-.1s3.1.4 4.5 0 3.3-.4 4.4 0c1 .3 3.7.4 6 .2 5.2-.5 6.6-.5 9.2.1 1.1.3 2.7.1 3.4-.3.8-.5 2.2-.4 3.1.1 1 .5 2 .5 2.3 0 .3-.4 1.8-.6 3.3-.4 4.2.6 16.1.6 17.2-.1.5-.4 1.3-.2 1.6.4.4.7 1.2.7 1.8.2 1.1-.8 2.8-.8 7.2.1 1.1.2 3.4.1 5.2-.3 1.8-.4 3.4-.5 3.7-.2.8.7 11.3.5 12.5-.2.5-.4 1.2-.2 1.6.4.4.6 1.2.7 1.8.3 1.5-1 3.8-1 5.7-.2.8.4 3.4.4 5.8-.1 2.3-.4 4.5-.4 4.8.1.2.4 1.5.5 2.7 0 1.2-.5 3.1-.5 4.2-.1s3.2.4 4.7-.1c1.4-.4 2.9-.5 3.2-.2.7.7 12.6.7 13.3-.1.3-.3 1.2-.1 1.9.5.8.6 1.4.6 1.8 0 .4-.6 1.8-.6 3.4-.1 1.6.4 3.6.4 4.5-.2 1.1-.6 1.7-.5 1.7.2s.6.8 1.8.1c1-.5 2.4-.6 3.1-.1.8.4 2.5.4 4 0 1.4-.4 3.5-.4 4.5 0 1.1.4 3.7.4 5.7 0s4.4-.3 5.2.2c.9.5 1.8.4 2.2-.1.3-.6 1.5-.7 2.8-.2 1.2.5 3.4.5 4.9.1 1.4-.5 2.9-.6 3.2-.3.7.8 12.2.7 13.4-.1.6-.3 1.3-.2 1.7.4.4.6 1.2.7 1.8.3 1.5-1 3.8-1 5.7-.2.8.4 3.4.4 5.8-.1 2.3-.4 4.5-.4 4.8.1.2.4 1.1.6 1.9.2 1.3-.4 1.5-9.3 1.5-65.9V209H649.2v65.4z"/></svg>