<svg version="1" xmlns="http://www.w3.org/2000/svg" width="1312" height="1312" viewBox="0 0 984.000000 984.000000"><path d="M285 1c0 .5.5 1 1.1 1 .5 0 .7-.5.4-1-.3-.6-.8-1-1.1-1-.2 0-.4.4-.4 1zM322.4.8c.3.5 2.5 1.4 4.9 1.8 4.8.9 4.6.8 7.2 1.8 1.1.4 3.4 1.3 5 1.9 3.5 1.3 14 7.4 17.4 10.2 4.8 4.1 16.1 17.3 16.1 19 0 .3 1.1 2.3 2.5 4.5s2.2 4 1.9 4c-.4 0-.2.6.3 1.2 1.7 2.1 6.1 16.9 6.9 23.1.2 1.5.6 3.9.9 5.5 1.1 5.7.6 504.8-.5 511.8-1.2 7.5-3.8 18.3-4.8 19.9-.4.5-.7 1.3-.8 1.7-.1.5-.3 1-.4 1.3-.1.3-.3.8-.4 1.2-.1.5-1.5 3.3-3 6.3-10.4 20.1-23.6 30.4-49.1 38.3-4 1.3-4.3 1.5-1.5 1.2 1.9-.3 5.3-.7 7.5-.9 6.6-.8 11.9-1.7 13.4-2.2.8-.2 3-.7 5-1 2-.3 4.4-1 5.4-1.5.9-.5 1.7-.8 1.7-.5 0 .6 13.5-4.3 19.5-6.9 2.2-1 4.2-1.9 4.5-2 .3-.1 2-.8 3.8-1.4 1.7-.7 3.2-1.6 3.2-1.9 0-.4 1.8-1.5 3.9-2.6 5.1-2.4 18.1-12.2 25-18.8 6.1-5.8 16.1-17.2 16.1-18.2 0-.4.8-1.5 1.8-2.6 4.4-4.8 19.4-33.1 20.6-39.2.2-.7.6-2 .9-2.8 1.9-5.2 5.9-19.3 7.2-25.5 1.9-9.3 2.6-13.8 3.3-19.4 1-8.8.9-356.4-.1-362.1-.4-2.5-1-5.6-1.3-7-.2-1.4-.6-3.9-.9-5.5-.5-3.4-3.9-17.7-4.5-19.5-.1-.3-.3-1-.5-1.5-.3-1.5-5.6-16.4-7.9-22-2.6-6.6-11.1-21.5-17-29.8-13.8-19.4-31.1-34-52.2-44.3-5-2.5-10-4.6-11-4.9-1-.2-4.2-1.3-7-2.3-8.8-3.3-23.5-6.5-35.8-7.8-3.3-.3-6.5-.8-7-1.1-.5-.4-.6-.1-.2.5zM699 .8c0 .4 2.6 1.3 5.7 2.1 3.1.7 6.8 1.8 8.2 2.4 1.4.5 2.8 1.1 3.1 1.2 6.4 2.2 15.9 8.6 23 15.8 6.3 6.3 12.4 16 16.4 26.2 2.7 6.8 3.2 8.3 4.2 13.5.2 1.4.7 3.1 1 3.9.2.8.7 4.6 1.1 8.5.9 9.5.8 501.6 0 508.4-2.6 19.8-9.8 36.6-21.3 50-7.5 8.7-23.4 18.1-34.6 20.4-3.2.7-5.8 1.5-5.8 1.8 0 .8 11.4-.5 19-2.1 3-.7 6.2-1.3 7-1.4 1.9-.2 12-3.2 18-5.4 2.5-.9 4.7-1.6 5-1.6 1.7-.2 18.4-8.8 22.9-11.9 2.9-2 5.5-3.6 5.8-3.6 1.9 0 22.7-19.7 28.1-26.6 3.7-4.8 13.1-18.9 14.2-21.5.6-1.3 1.8-3.8 2.8-5.4 5.6-9.4 14.8-36.1 16.8-49 .2-1.1.8-3.8 1.3-6 .6-2.2 1.1-6 1.3-8.5.2-2.5.7-5 1.1-5.6.9-1.6.4-359.2-.6-362.4-.4-1.4-.9-4.1-1.2-6-.3-1.9-.7-4.6-1.1-6-.3-1.4-.7-3.4-.9-4.5-.1-1.1-.8-4-1.5-6.5s-1.3-5-1.5-5.5c-.1-.6-.4-1.7-.7-2.5-.3-.8-1.1-3.5-1.9-6-4.8-16.6-18.7-42.6-29.4-55-3.8-4.4-16.3-16.9-19.6-19.5-9.3-7.4-23.5-15.6-36-20.5-11.6-4.7-27.2-8.8-35.9-9.5-1.9-.2-3.5-.4-3.5-.5 0-.1-1.8-.4-4-.6-2.2-.2-4.6-.6-5.2-.9-.7-.2-1.3-.1-1.3.3z"/><path d="M267.8 3.1c-12.7 2.2-23.2 5.2-34.9 10-9.6 4-24.3 12.3-30 16.9-1.7 1.4-4.4 3.6-6.1 5-6.2 4.9-16.6 16-20.8 22-1.4 1.9-2.7 3.7-3 4-4.6 4.2-20.4 36-22.5 45.3-.2.9-.7 2.1-1 2.7-1 1.6-5.9 22.2-7 29-.3 1.9-.8 4.8-1.2 6.5-.4 1.6-.9 191.2-1 421.2L140 984h82.8l.1-453.8c0-249.5.3-455.3.6-457.2.3-1.9.8-5.1 1.1-7 .2-1.9 1-5.1 1.6-7 .7-1.9 1.3-4.1 1.4-4.8 1.6-9.1 19-36.2 23.3-36.2.6 0 1.1-.4 1.1-.9s1.7-2 3.8-3.2c2-1.3 3.9-2.6 4.2-2.9 1.1-1.3 12.6-6.2 17.8-7.5 11.5-3 6.1-3.2-10-.4zM646.9 2.6c-6.2 1.1-10.1 1.9-14.4 2.8C620 8.2 600 16.2 591 22c-6.4 4.1-18.6 13.2-22.2 16.6-5.2 4.9-15.9 16.8-17.2 19.2-.5.9-2 2.8-3.3 4.2-1.3 1.4-2.3 2.8-2.3 3.2 0 .4-1.6 3.3-3.6 6.4C538.7 77.4 531 93.2 531 95c0 .5-.4 1-.8 1-.5 0-.9.6-.9 1.2 0 .7-1.5 5.8-3.2 11.3-1.8 5.5-3.5 10.8-3.7 11.7-.2 1-.6 2.8-.9 4-.9 3.7-2.7 13.1-3.1 15.8-1.3 10.2-1.7 14.1-1.8 18l-.1 4.5 7-.1c32.8-.2 59.2-20.5 69.3-53.4 3.5-11.2 3.9-13.2 4.6-23.5.6-7.3 1.3-13.9 2.2-19 .8-4.8 4.5-16.9 5.6-18.3.6-.6.8-1.2.4-1.2-.3 0 1.1-3 3.1-6.8 6.4-11.9 13.9-20.5 23.3-26.6 5.8-3.8 12.7-7.5 15.5-8.3.6-.1 4.4-1.1 8.5-2.2l7.5-2-5.1.2c-2.8.1-8 .7-11.5 1.3zM659.8 246.5c-.2.2-2.6.6-5.3.9-28.4 3.3-57.9 14.8-77.3 30.3-11.3 9-28 27.7-32.4 36.3-.7 1.4-2.1 3.4-3 4.4-1 1-1.5 2.2-1.3 2.7.3.4-.1 1.3-.8 2.1-3.7 3.8-12.9 27.1-17.3 44-.1.5-.3 1.1-.4 1.5-.1.5-.3 1.2-.4 1.8-.1.5-.5 2.6-1 4.5-1 4.7-1.1 5.6-2 11.5-.4 2.7-1 6.1-1.3 7.5-.9 4.1-1.1 102.9-.2 110.5 1.2 10.9 1.9 16.1 2.4 18.1 2.5 11 6.8 27 8.2 30.4.4.8.7 1.7.8 2 .1.3.7 1.8 1.3 3.3.7 1.6 1.2 3 1.2 3.2 0 1.2 8.9 18.8 12.3 24.5 9.8 16.2 25.7 33.4 39.4 42.6 3.2 2.1 6 4.1 6.3 4.4 1.1 1.2 19.2 10 20.4 10 .7 0 1.9.7 2.6 1.5.7.9 1.5 1.3 1.8 1.1.2-.3 2.7.4 5.6 1.4 5.2 1.9 16.5 5 20.1 5.5 1.1.1 4.7.7 8 1.3 9.4 1.7 16.2 2.3 14.5 1.2-.8-.5-2.4-1-3.5-1-2.7 0-12.7-3.5-18.7-6.5-9.1-4.6-16.1-10.2-21.8-17.5-1.9-2.4-4.1-5.1-4.8-5.9-2.2-2.4-9.9-19.3-11.5-25.6-1.6-5.8-2.2-9.1-3.2-16.5-.6-4.9-.6-258.7.1-263 3.2-21.9 11.2-38.9 24.1-51.8 4-3.9 7.7-7.2 8.2-7.2.5 0 1.6-.6 2.3-1.3 3.2-3.1 24.8-11.8 24.8-9.9 0 .3.5.1 1.1-.5.6-.6 1.8-.9 2.5-.6.8.3 1.4.3 1.4 0 0-.6-2.7-1.7-3.2-1.2z"/></svg>