<svg xmlns="http://www.w3.org/2000/svg" width="396.52" height="164.45" viewBox="0 0 104.91 43.51"><defs/><defs><path id="a" d="M26.46 119.44h117.56v49.38H26.46z"/></defs><path d="M130.08 129.65s1.33 0 1.33-1.37c-2.63 0-2.7 2.55-2.7 2.7 0-.15.07-1.33 1.37-1.33zm-1.38 4.08v19.05h2.7v-21.76c-2.7 0-2.7 2.7-2.7 2.7zm-6.97-2.7c2.7 0 2.7 2.7 2.7 2.7v19.05h2.74v-16.35s0-5.4-5.44-5.4zm-5.45-10.9v32.65h2.7v-29.95c0-2.7-2.7-2.7-2.7-2.7zm-6.9 10.9c2.7 0 2.7 2.7 2.7 2.7v16.34s0 2.7-2.7 2.7c5.4 0 5.4-5.44 5.4-5.44v-10.9s0-5.4-5.4-5.4zm-2.75 19.04v-27.24c0-2.7-2.7-2.7-2.7-2.7v27.2s0 5.45 5.44 5.45c-2.74 0-2.74-2.7-2.74-2.7zm-12.43 0v-8.19s0-2.7 2.75-2.7c-5.45 0-5.45 5.45-5.45 5.45v2.7s0 5.45 5.45 5.45c-2.75 0-2.75-2.7-2.75-2.7zm2.75-19.05c2.7 0 2.7 2.7 2.7 2.7v16.35s0 2.7-2.7 2.7c5.4 0 5.4-5.44 5.4-5.44v-10.9s0-5.4-5.4-5.4zm-5.45 5.41c2.7 0 2.7-2.7 2.7-2.7s0-2.7 2.75-2.7c-5.45 0-5.45 5.4-5.45 5.4zm-3.24 13.64s0 2.7-2.7 2.7c5.41 0 5.41-5.44 5.41-5.44-2.7 0-2.7 2.74-2.7 2.74zm2.71-16.34c0-2.7-2.7-2.7-2.7-2.7s-2.71 0-2.71-2.75c0 5.45 5.41 5.45 5.41 5.45zm-8.15 16.34v-27.24c0-2.7-2.7-2.7-2.7-2.7v27.2s0 5.45 5.44 5.45c-2.74 0-2.74-2.7-2.74-2.7zm-14.69-13.64v10.9s0 5.45 5.45 5.45c-2.74 0-2.74-2.7-2.74-2.7v-16.35s0-2.7 2.74-2.7c-5.45 0-5.45 5.4-5.45 5.4zM79 147.33c-2.7 0-2.7 2.74-2.7 2.74s0 2.7-2.71 2.7c5.4 0 5.4-5.44 5.4-5.44zm-5.41-16.3c2.7 0 2.7 2.7 2.7 2.7v5.45s0 2.7-2.7 2.7c5.4 0 5.4-5.45 5.4-5.45s0-5.4-5.4-5.4zm-12.43 0c2.7 0 2.7 2.7 2.7 2.7v19.05h2.75v-16.35s0-5.4-5.45-5.4zm-5.45 0v21.75h2.7v-19.05s0-2.7 2.75-2.7c-1.75 0-3.27.98-3.27.98-.39-.53-1.07-.99-2.18-.99zm-9.72 19.04v-8.19s0-2.7 2.74-2.7c-5.44 0-5.44 5.45-5.44 5.45v2.7s0 5.45 5.44 5.45c-2.74 0-2.74-2.7-2.74-2.7zm2.74-19.05c2.71 0 2.71 2.7 2.71 2.7v16.35s0 2.7-2.7 2.7c5.4 0 5.4-5.44 5.4-5.44v-10.9s0-5.4-5.4-5.4zm-5.44 5.41c2.7 0 2.7-2.7 2.7-2.7s0-2.7 2.74-2.7c-5.44 0-5.44 5.4-5.44 5.4zm-4.32-16.3v32.65h2.7v-29.95c0-2.7-2.7-2.7-2.7-2.7zm-7.01 10.9c2.7 0 2.7 2.7 2.7 2.7v16.34s0 2.7-2.7 2.7c5.44 0 5.44-5.44 5.44-5.44v-10.9s0-5.4-5.44-5.4zm-5.45 5.4v27.2h2.74v-29.9s0-2.7 2.7-2.7c-5.44 0-5.44 5.4-5.44 5.4z" style="line-height:1.25;-inkscape-font-specification:Coco;white-space:pre;shape-inside:url(#a)" font-family="Coco" font-size="38.1" font-weight="400" transform="translate(-26.5 -120.13)"/></svg>